<mxfile host="app.diagrams.net" modified="2024-07-24T13:25:11.350Z" agent="Mozilla/5.0 (Windows NT 10.0; Win64; x64) AppleWebKit/537.36 (KHTML, like Gecko) Chrome/126.0.0.0 Safari/537.36" etag="jc1HMvhdfQ5CIWWcUvqO" version="24.0.5" type="device">
  <diagram name="Page-1" id="t5DfS8-osd_jHNBwCVOc">
    <mxGraphModel dx="1195" dy="648" grid="1" gridSize="10" guides="0" tooltips="1" connect="1" arrows="1" fold="1" page="1" pageScale="1" pageWidth="850" pageHeight="1100" background="#ffffff" math="0" shadow="0">
      <root>
        <mxCell id="0" />
        <mxCell id="1" parent="0" />
        <mxCell id="AOUtDqeszcw0lLYTRT-g-68" style="edgeStyle=none;rounded=0;orthogonalLoop=1;jettySize=auto;html=1;entryX=0.5;entryY=0;entryDx=0;entryDy=0;align=center;verticalAlign=bottom;fontFamily=Times New Roman;fontSize=11;fontColor=default;labelBackgroundColor=none;endArrow=none;" edge="1" parent="1" target="AOUtDqeszcw0lLYTRT-g-46">
          <mxGeometry relative="1" as="geometry">
            <mxPoint x="138" y="210" as="sourcePoint" />
            <mxPoint x="732.0000000000002" y="418" as="targetPoint" />
            <Array as="points">
              <mxPoint x="138" y="280" />
              <mxPoint x="706" y="280" />
            </Array>
          </mxGeometry>
        </mxCell>
        <mxCell id="AOUtDqeszcw0lLYTRT-g-31" value="General User\Visitor" style="shape=umlActor;verticalLabelPosition=middle;verticalAlign=middle;html=1;outlineConnect=0;fontStyle=1;labelPosition=left;align=right;fontFamily=Times New Roman;labelBackgroundColor=none;rounded=0;" vertex="1" parent="1">
          <mxGeometry x="123" y="140" width="30" height="61" as="geometry" />
        </mxCell>
        <mxCell id="AOUtDqeszcw0lLYTRT-g-41" value="Data Dashboard" style="swimlane;fontFamily=Times New Roman;labelBackgroundColor=none;rounded=0;strokeWidth=2;perimeterSpacing=1;swimlaneLine=0;glass=0;shadow=0;swimlaneFillColor=none;fillColor=#1ba1e2;strokeColor=#006EAF;fontColor=#ffffff;" vertex="1" parent="1">
          <mxGeometry x="236" y="68" width="583" height="738" as="geometry" />
        </mxCell>
        <mxCell id="AOUtDqeszcw0lLYTRT-g-42" value="Explore&amp;nbsp;&lt;div&gt;(Data Visualization)&lt;/div&gt;" style="ellipse;whiteSpace=wrap;html=1;fontFamily=Times New Roman;labelBackgroundColor=none;rounded=0;" vertex="1" parent="AOUtDqeszcw0lLYTRT-g-41">
          <mxGeometry x="204" y="69" width="140" height="70" as="geometry" />
        </mxCell>
        <mxCell id="AOUtDqeszcw0lLYTRT-g-43" value="Switch Visualizations" style="ellipse;whiteSpace=wrap;html=1;fontFamily=Times New Roman;labelBackgroundColor=none;rounded=0;" vertex="1" parent="AOUtDqeszcw0lLYTRT-g-41">
          <mxGeometry x="413" y="69" width="140" height="70" as="geometry" />
        </mxCell>
        <mxCell id="AOUtDqeszcw0lLYTRT-g-45" value="Toggle Theme" style="ellipse;whiteSpace=wrap;html=1;fontFamily=Times New Roman;labelBackgroundColor=none;rounded=0;" vertex="1" parent="AOUtDqeszcw0lLYTRT-g-41">
          <mxGeometry x="238" y="614" width="140" height="70" as="geometry" />
        </mxCell>
        <mxCell id="AOUtDqeszcw0lLYTRT-g-46" value="View About &amp;amp; Contact Information" style="ellipse;whiteSpace=wrap;html=1;fontFamily=Times New Roman;labelBackgroundColor=none;rounded=0;" vertex="1" parent="AOUtDqeszcw0lLYTRT-g-41">
          <mxGeometry x="400" y="302" width="140" height="70" as="geometry" />
        </mxCell>
        <mxCell id="AOUtDqeszcw0lLYTRT-g-47" value="FAQ" style="ellipse;whiteSpace=wrap;html=1;fontFamily=Times New Roman;labelBackgroundColor=none;rounded=0;" vertex="1" parent="AOUtDqeszcw0lLYTRT-g-41">
          <mxGeometry x="73" y="302" width="140" height="70" as="geometry" />
        </mxCell>
        <mxCell id="AOUtDqeszcw0lLYTRT-g-50" value="&amp;lt;&amp;lt;include&amp;gt;&amp;gt;" style="edgeStyle=none;html=1;endArrow=open;verticalAlign=bottom;dashed=1;labelBackgroundColor=none;exitX=1;exitY=0.5;exitDx=0;exitDy=0;entryX=0;entryY=0.5;entryDx=0;entryDy=0;fontStyle=1;fontFamily=Times New Roman;fontColor=default;rounded=0;" edge="1" parent="AOUtDqeszcw0lLYTRT-g-41" source="AOUtDqeszcw0lLYTRT-g-42" target="AOUtDqeszcw0lLYTRT-g-43">
          <mxGeometry width="160" relative="1" as="geometry">
            <mxPoint x="107" y="207" as="sourcePoint" />
            <mxPoint x="267" y="207" as="targetPoint" />
          </mxGeometry>
        </mxCell>
        <mxCell id="AOUtDqeszcw0lLYTRT-g-59" value="&amp;lt;&amp;lt;extend&amp;gt;&amp;gt;" style="edgeStyle=none;html=1;startArrow=open;endArrow=none;startSize=12;verticalAlign=bottom;dashed=1;labelBackgroundColor=none;rounded=0;align=center;fontFamily=Times New Roman;fontSize=11;fontColor=default;entryX=0.5;entryY=1;entryDx=0;entryDy=0;exitX=0.5;exitY=0;exitDx=0;exitDy=0;horizontal=0;fontStyle=1" edge="1" parent="AOUtDqeszcw0lLYTRT-g-41" source="AOUtDqeszcw0lLYTRT-g-45" target="AOUtDqeszcw0lLYTRT-g-69">
          <mxGeometry x="0.9028" y="10" width="160" relative="1" as="geometry">
            <mxPoint x="143" y="208" as="sourcePoint" />
            <mxPoint x="303" y="208" as="targetPoint" />
            <Array as="points">
              <mxPoint x="308" y="242" />
              <mxPoint x="104" y="242" />
            </Array>
            <mxPoint as="offset" />
          </mxGeometry>
        </mxCell>
        <mxCell id="AOUtDqeszcw0lLYTRT-g-60" value="&amp;lt;&amp;lt;extend&amp;gt;&amp;gt;" style="edgeStyle=none;html=1;startArrow=open;endArrow=none;startSize=12;verticalAlign=bottom;dashed=1;labelBackgroundColor=none;rounded=0;align=center;fontFamily=Times New Roman;fontSize=11;fontColor=default;exitX=0;exitY=0.5;exitDx=0;exitDy=0;horizontal=0;fontStyle=1" edge="1" parent="AOUtDqeszcw0lLYTRT-g-41" source="AOUtDqeszcw0lLYTRT-g-45">
          <mxGeometry x="0.7778" y="12" width="160" relative="1" as="geometry">
            <mxPoint x="425" y="430" as="sourcePoint" />
            <mxPoint x="140" y="370" as="targetPoint" />
            <Array as="points">
              <mxPoint x="140" y="650" />
            </Array>
            <mxPoint as="offset" />
          </mxGeometry>
        </mxCell>
        <mxCell id="AOUtDqeszcw0lLYTRT-g-64" value="&amp;lt;&amp;lt;extend&amp;gt;&amp;gt;" style="edgeStyle=none;html=1;startArrow=open;endArrow=none;startSize=12;verticalAlign=bottom;dashed=1;labelBackgroundColor=none;rounded=0;align=center;fontFamily=Times New Roman;fontSize=11;fontColor=default;entryX=0.5;entryY=1;entryDx=0;entryDy=0;exitX=1;exitY=0.5;exitDx=0;exitDy=0;horizontal=0;fontStyle=1" edge="1" parent="AOUtDqeszcw0lLYTRT-g-41" source="AOUtDqeszcw0lLYTRT-g-45" target="AOUtDqeszcw0lLYTRT-g-46">
          <mxGeometry x="0.7391" y="12" width="160" relative="1" as="geometry">
            <mxPoint y="390" as="sourcePoint" />
            <mxPoint x="160" y="390" as="targetPoint" />
            <Array as="points">
              <mxPoint x="470" y="650" />
            </Array>
            <mxPoint as="offset" />
          </mxGeometry>
        </mxCell>
        <mxCell id="AOUtDqeszcw0lLYTRT-g-69" value="Home Page" style="ellipse;whiteSpace=wrap;html=1;fontFamily=Times New Roman;labelBackgroundColor=none;rounded=0;" vertex="1" parent="AOUtDqeszcw0lLYTRT-g-41">
          <mxGeometry x="34" y="69" width="140" height="70" as="geometry" />
        </mxCell>
        <mxCell id="AOUtDqeszcw0lLYTRT-g-72" value="&amp;lt;&amp;lt;extend&amp;gt;&amp;gt;" style="edgeStyle=none;html=1;startArrow=open;endArrow=none;startSize=12;verticalAlign=bottom;dashed=1;labelBackgroundColor=none;entryX=0.5;entryY=1;entryDx=0;entryDy=0;horizontal=0;fontStyle=1;fontFamily=Times New Roman;" edge="1" parent="AOUtDqeszcw0lLYTRT-g-41" target="AOUtDqeszcw0lLYTRT-g-42">
          <mxGeometry x="0.8182" y="10" width="160" relative="1" as="geometry">
            <mxPoint x="274" y="612" as="sourcePoint" />
            <mxPoint x="274" y="152" as="targetPoint" />
            <mxPoint as="offset" />
          </mxGeometry>
        </mxCell>
        <mxCell id="AOUtDqeszcw0lLYTRT-g-67" style="edgeStyle=none;rounded=0;orthogonalLoop=1;jettySize=auto;html=1;entryX=0;entryY=0.5;entryDx=0;entryDy=0;align=center;verticalAlign=bottom;fontFamily=Times New Roman;fontSize=11;fontColor=default;labelBackgroundColor=none;endArrow=none;" edge="1" parent="1" target="AOUtDqeszcw0lLYTRT-g-47">
          <mxGeometry relative="1" as="geometry">
            <mxPoint x="160" y="190" as="sourcePoint" />
            <mxPoint x="335" y="405" as="targetPoint" />
            <Array as="points">
              <mxPoint x="200" y="200" />
              <mxPoint x="200" y="405" />
            </Array>
          </mxGeometry>
        </mxCell>
        <mxCell id="AOUtDqeszcw0lLYTRT-g-70" value="" style="edgeStyle=none;html=1;endArrow=none;verticalAlign=bottom;entryX=0;entryY=0.5;entryDx=0;entryDy=0;fontFamily=Times New Roman;labelBackgroundColor=none;fontColor=default;rounded=0;" edge="1" parent="1" target="AOUtDqeszcw0lLYTRT-g-69">
          <mxGeometry width="160" relative="1" as="geometry">
            <mxPoint x="160" y="172" as="sourcePoint" />
            <mxPoint x="430" y="172" as="targetPoint" />
          </mxGeometry>
        </mxCell>
        <mxCell id="AOUtDqeszcw0lLYTRT-g-74" value="" style="edgeStyle=none;html=1;endArrow=none;verticalAlign=bottom;entryX=0;entryY=0;entryDx=0;entryDy=0;fontFamily=Times New Roman;labelBackgroundColor=none;fontColor=default;rounded=0;" edge="1" parent="1" target="AOUtDqeszcw0lLYTRT-g-42">
          <mxGeometry width="160" relative="1" as="geometry">
            <mxPoint x="160" y="150" as="sourcePoint" />
            <mxPoint x="280" y="182" as="targetPoint" />
            <Array as="points">
              <mxPoint x="200" y="120" />
              <mxPoint x="440" y="120" />
            </Array>
          </mxGeometry>
        </mxCell>
      </root>
    </mxGraphModel>
  </diagram>
</mxfile>
